<svg width="148" height="60" viewBox="0 0 148 60" fill="none" xmlns="http://www.w3.org/2000/svg">
<path d="M65.092 0.164996C63.6912 0.450342 62.1867 1.2545 61.3825 2.11054C61.0194 2.49965 60.9156 2.73311 61.1491 2.62935C61.7976 2.39588 63.2762 3.58915 64.1582 5.06776C64.651 5.89786 66.3112 10.4115 68.2568 16.2222C71.8366 26.9097 72.4332 28.1548 74.69 29.6594C77.777 31.7346 83.6914 31.3196 86.0001 28.8552L86.5708 28.2586H85.8964C85.0922 28.2327 83.8989 27.195 83.017 25.6905C82.6797 25.1198 80.9936 20.4505 79.2815 15.3402C77.5435 10.2559 75.8574 5.48281 75.4942 4.78241C74.5603 2.94064 73.0039 1.35826 71.4994 0.709747C70.0207 0.0612337 66.8041 -0.198172 65.092 0.164996Z" fill="white"/>
<path d="M59.3722 6.75481C58.8534 7.53302 51.7197 28.8821 51.7197 29.6603C51.7197 30.9055 52.2126 31.0352 56.7263 31.0352C60.4357 31.0352 61.0324 30.9833 61.7587 30.5163C62.8482 29.8678 63.0298 29.4787 64.9235 23.7459L66.5058 18.9209L64.9235 14.2776C64.0415 11.7095 63.1076 9.16728 62.8223 8.59658C61.6809 6.28788 60.1763 5.50966 59.3722 6.75481Z" fill="white"/>
<path d="M88.2489 24.2804C88.7677 23.5021 95.9014 2.15307 95.9014 1.37485C95.9014 0.129703 95.4085 0 90.8948 0C87.1853 0 86.5887 0.0518811 85.8624 0.518811C84.7729 1.16732 84.5913 1.55643 82.6976 7.28929L81.1153 12.1142L82.6976 16.7576C83.5796 19.3257 84.5135 21.8679 84.7988 22.4386C85.9402 24.7473 87.4448 25.5255 88.2489 24.2804Z" fill="white"/>
<path d="M1.09183 47.941C1.09183 47.4391 1.26229 47.0414 1.60322 46.7478C1.94414 46.4542 2.40344 46.3074 2.98112 46.3074L7.54097 53.5237L7.69723 53.3958L7.058 52.3304V46.3074C7.73038 46.3074 8.24176 46.4353 8.59216 46.691C8.94255 46.9467 9.11775 47.3207 9.11775 47.8132V55.1289C9.11775 55.3656 9.04199 55.5929 8.89046 55.8107C8.74841 56.019 8.55428 56.1895 8.30805 56.3221C8.06183 56.4452 7.8014 56.5068 7.52677 56.5068L2.6686 48.8218L2.51235 48.9496L3.15158 50.015V55.001C3.15158 55.4935 2.97638 55.8675 2.62599 56.1232C2.27559 56.3789 1.76421 56.5068 1.09183 56.5068V47.941ZM15.0101 56.5068C14.1957 56.5068 13.4618 56.3458 12.8083 56.0238C12.1643 55.6923 11.6577 55.233 11.2884 54.6459C10.9285 54.0587 10.7486 53.4006 10.7486 52.6714V47.8132C10.7486 47.3207 10.9238 46.9467 11.2742 46.691C11.634 46.4353 12.1549 46.3074 12.8367 46.3074V52.6714C12.8367 53.2869 13.0309 53.7794 13.4191 54.1487C13.8169 54.5086 14.3472 54.6885 15.0101 54.6885C15.673 54.6885 16.1986 54.5086 16.5869 54.1487C16.9846 53.7794 17.1835 53.2869 17.1835 52.6714V47.8132C17.1835 47.3207 17.3587 46.9467 17.7091 46.691C18.069 46.4353 18.5898 46.3074 19.2717 46.3074V52.6714C19.2717 53.4006 19.087 54.0587 18.7177 54.6459C18.3578 55.233 17.8511 55.6923 17.1977 56.0238C16.5537 56.3458 15.8245 56.5068 15.0101 56.5068ZM23.9053 48.2393H20.4819C20.4819 47.0366 21.0264 46.4353 22.1155 46.4353H29.4027C29.4027 47.638 28.8582 48.2393 27.7691 48.2393H25.9935V55.001C25.9935 55.4935 25.8135 55.8675 25.4537 56.1232C25.1033 56.3789 24.5872 56.5068 23.9053 56.5068V48.2393ZM30.6774 47.387C30.6774 47.1124 30.7768 46.8851 30.9757 46.7052C31.1841 46.5253 31.435 46.4353 31.7286 46.4353H35.4645C36.5252 46.4353 37.3396 46.7099 37.9078 47.2592C38.4855 47.799 38.7743 48.5708 38.7743 49.5746C38.7743 50.1334 38.6607 50.6021 38.4334 50.9809C38.2156 51.3597 37.8747 51.6581 37.4107 51.8759V51.9327C38.2346 52.302 38.6465 52.9981 38.6465 54.0208V55.001C38.6465 55.4935 38.4666 55.8675 38.1067 56.1232C37.7563 56.3789 37.2402 56.5068 36.5583 56.5068V54.0919C36.5583 53.6184 36.4636 53.2727 36.2742 53.0549C36.0943 52.8276 35.8149 52.714 35.4361 52.714H32.7372V55.001C32.7372 55.4935 32.562 55.8675 32.2116 56.1232C31.8612 56.3789 31.3498 56.5068 30.6774 56.5068V47.387ZM35.3509 50.9383C35.7865 50.9383 36.118 50.82 36.3453 50.5832C36.5725 50.3464 36.6862 50.0055 36.6862 49.5604C36.6862 49.0964 36.5773 48.7555 36.3595 48.5377C36.1511 48.3198 35.8149 48.2109 35.3509 48.2109H32.7372V50.9383H35.3509ZM40.6199 47.8274C40.6199 47.3539 40.7998 46.9846 41.1597 46.7194C41.529 46.4448 42.0452 46.3074 42.7081 46.3074V54.9868C42.7081 55.4698 42.5234 55.8438 42.1541 56.109C41.7942 56.3742 41.2828 56.5068 40.6199 56.5068V47.8274ZM47.6923 48.2393H44.2689C44.2689 47.0366 44.8134 46.4353 45.9025 46.4353H53.1897C53.1897 47.638 52.6452 48.2393 51.5561 48.2393H49.7805V55.001C49.7805 55.4935 49.6005 55.8675 49.2407 56.1232C48.8903 56.3789 48.3742 56.5068 47.6923 56.5068V48.2393ZM54.7485 47.8274C54.7485 47.3539 54.9284 46.9846 55.2883 46.7194C55.6576 46.4448 56.1737 46.3074 56.8367 46.3074V54.9868C56.8367 55.4698 56.652 55.8438 56.2826 56.109C55.9228 56.3742 55.4114 56.5068 54.7485 56.5068V47.8274ZM62.8153 56.5068C62.0387 56.5068 61.3237 56.3552 60.6703 56.0522C60.0168 55.7397 59.496 55.323 59.1077 54.8021C58.7289 54.2718 58.5395 53.7036 58.5395 53.0975V49.7167C58.5395 49.1106 58.7289 48.5471 59.1077 48.0263C59.496 47.4959 60.0168 47.0793 60.6703 46.7762C61.3237 46.4637 62.0387 46.3074 62.8153 46.3074C63.5918 46.3074 64.3068 46.4637 64.9602 46.7762C65.6137 47.0793 66.1298 47.4959 66.5086 48.0263C66.8969 48.5471 67.091 49.1106 67.091 49.7167V53.0975C67.091 53.7036 66.8969 54.2718 66.5086 54.8021C66.1298 55.323 65.6137 55.7397 64.9602 56.0522C64.3068 56.3552 63.5918 56.5068 62.8153 56.5068ZM62.8153 54.6885C63.4592 54.6885 63.9848 54.537 64.392 54.2339C64.7992 53.9309 65.0028 53.5379 65.0028 53.0549V49.7593C65.0028 49.2763 64.7992 48.8833 64.392 48.5803C63.9848 48.2772 63.4592 48.1257 62.8153 48.1257C62.1713 48.1257 61.6457 48.2772 61.2385 48.5803C60.8313 48.8833 60.6277 49.2763 60.6277 49.7593V53.0549C60.6277 53.5379 60.8313 53.9309 61.2385 54.2339C61.6457 54.537 62.1713 54.6885 62.8153 54.6885ZM68.5097 47.941C68.5097 47.4391 68.6802 47.0414 69.0211 46.7478C69.3621 46.4542 69.8214 46.3074 70.399 46.3074L74.9589 53.5237L75.1151 53.3958L74.4759 52.3304V46.3074C75.1483 46.3074 75.6597 46.4353 76.0101 46.691C76.3605 46.9467 76.5357 47.3207 76.5357 47.8132V55.1289C76.5357 55.3656 76.4599 55.5929 76.3084 55.8107C76.1663 56.019 75.9722 56.1895 75.726 56.3221C75.4797 56.4452 75.2193 56.5068 74.9447 56.5068L70.0865 48.8218L69.9303 48.9496L70.5695 50.015V55.001C70.5695 55.4935 70.3943 55.8675 70.0439 56.1232C69.6935 56.3789 69.1821 56.5068 68.5097 56.5068V47.941ZM79.4023 56.5068C78.9478 56.4689 78.5926 56.3221 78.3369 56.0664C78.0812 55.8107 77.9534 55.4887 77.9534 55.1004C77.9534 54.7974 78.0292 54.4801 78.1807 54.1487L81.3911 47.0035C81.4952 46.7667 81.6278 46.5916 81.7888 46.4779C81.9593 46.3643 82.1676 46.3074 82.4138 46.3074C82.66 46.3074 82.8637 46.3643 83.0246 46.4779C83.1951 46.5916 83.3324 46.7667 83.4366 47.0035L86.647 54.1487C86.7985 54.4801 86.8742 54.7927 86.8742 55.0862C86.8742 55.484 86.7464 55.8107 86.4907 56.0664C86.235 56.3221 85.8751 56.4689 85.4111 56.5068L84.2179 53.9072H80.5956L79.4023 56.5068ZM83.5786 52.1174L82.1155 48.4808L81.9166 48.5661L82.3002 49.5178L81.2206 52.1174H83.5786ZM89.392 56.3789C89.089 56.3789 88.8285 56.27 88.6107 56.0522C88.4024 55.8344 88.2982 55.5739 88.2982 55.2709V47.8132C88.2982 47.3018 88.4687 46.923 88.8096 46.6768C89.1505 46.4306 89.6761 46.3074 90.3864 46.3074V54.5749H94.0513C94.5248 54.5749 94.8847 54.7311 95.1309 55.0436C95.3866 55.3467 95.5144 55.7918 95.5144 56.3789H89.392ZM104.616 56.5068C103.29 56.5068 102.239 56.2795 101.462 55.8249C100.695 55.3703 100.312 54.7406 100.312 53.9356C100.312 53.5852 100.444 53.3011 100.709 53.0833C100.974 52.8655 101.42 52.7566 102.045 52.7566C102.082 53.4479 102.319 53.9735 102.755 54.3334C103.2 54.6838 103.82 54.859 104.616 54.859C105.231 54.859 105.714 54.7548 106.065 54.5464C106.415 54.3286 106.59 54.0303 106.59 53.6515C106.59 53.3958 106.524 53.1875 106.391 53.0265C106.259 52.8655 106.027 52.7187 105.695 52.5861C105.373 52.4535 104.9 52.3162 104.275 52.1742C103.328 51.9564 102.584 51.7101 102.045 51.4355C101.505 51.1609 101.112 50.8342 100.866 50.4554C100.629 50.0765 100.51 49.603 100.51 49.0348C100.51 48.495 100.671 48.0215 100.993 47.6143C101.325 47.1976 101.784 46.8757 102.371 46.6484C102.958 46.4211 103.64 46.3074 104.417 46.3074C105.156 46.3074 105.818 46.4069 106.406 46.6058C106.993 46.7952 107.452 47.0651 107.783 47.4154C108.115 47.7658 108.281 48.1683 108.281 48.6229C108.281 48.9733 108.148 49.2527 107.883 49.461C107.627 49.6599 107.201 49.7688 106.604 49.7877C106.557 49.1532 106.363 48.6892 106.022 48.3956C105.681 48.102 105.146 47.9552 104.417 47.9552C103.82 47.9552 103.361 48.0499 103.039 48.2393C102.717 48.4288 102.556 48.7034 102.556 49.0632C102.556 49.3095 102.618 49.5131 102.741 49.6741C102.864 49.8256 103.072 49.9629 103.366 50.086C103.669 50.2091 104.1 50.3322 104.658 50.4554C105.634 50.6732 106.406 50.9241 106.974 51.2082C107.551 51.4829 107.968 51.8143 108.224 52.2026C108.489 52.5909 108.622 53.0691 108.622 53.6373C108.622 54.215 108.456 54.7216 108.124 55.1573C107.802 55.5929 107.338 55.9291 106.732 56.1658C106.136 56.3931 105.43 56.5068 104.616 56.5068ZM114.18 56.5068C113.327 56.5068 112.565 56.341 111.893 56.0096C111.22 55.6781 110.695 55.2188 110.316 54.6317C109.947 54.0351 109.762 53.3579 109.762 52.6003V50.1855C109.762 49.4278 109.942 48.7555 110.302 48.1683C110.671 47.5812 111.182 47.1266 111.836 46.8046C112.499 46.4732 113.252 46.3074 114.094 46.3074C114.937 46.3074 115.69 46.4353 116.353 46.691C117.016 46.9372 117.527 47.2876 117.887 47.7422C118.257 48.1967 118.441 48.7129 118.441 49.2905C118.441 49.6693 118.318 49.9676 118.072 50.1855C117.826 50.3938 117.489 50.498 117.063 50.498C116.817 50.498 116.576 50.4648 116.339 50.3985C116.367 50.1997 116.381 49.9582 116.381 49.6741C116.381 49.2195 116.168 48.8502 115.742 48.5661C115.316 48.2725 114.767 48.1257 114.094 48.1257C113.432 48.1257 112.892 48.3198 112.475 48.7081C112.058 49.0869 111.85 49.5794 111.85 50.1855V52.6003C111.85 53.2159 112.063 53.7178 112.489 54.1061C112.925 54.4944 113.488 54.6885 114.18 54.6885C114.852 54.6885 115.397 54.5464 115.813 54.2623C116.239 53.9782 116.452 53.6089 116.452 53.1543C116.452 52.8418 116.438 52.6145 116.41 52.4725C116.666 52.4157 116.898 52.3873 117.106 52.3873C117.532 52.3873 117.873 52.4962 118.129 52.714C118.384 52.9318 118.512 53.2301 118.512 53.6089C118.512 54.1676 118.328 54.6696 117.958 55.1146C117.598 55.5503 117.087 55.8912 116.424 56.1374C115.771 56.3836 115.023 56.5068 114.18 56.5068ZM121.091 56.5068C120.637 56.4689 120.281 56.3221 120.026 56.0664C119.77 55.8107 119.642 55.4887 119.642 55.1004C119.642 54.7974 119.718 54.4801 119.869 54.1487L123.08 47.0035C123.184 46.7667 123.317 46.5916 123.478 46.4779C123.648 46.3643 123.856 46.3074 124.103 46.3074C124.349 46.3074 124.552 46.3643 124.713 46.4779C124.884 46.5916 125.021 46.7667 125.125 47.0035L128.336 54.1487C128.487 54.4801 128.563 54.7927 128.563 55.0862C128.563 55.484 128.435 55.8107 128.18 56.0664C127.924 56.3221 127.564 56.4689 127.1 56.5068L125.907 53.9072H122.284L121.091 56.5068ZM125.267 52.1174L123.804 48.4808L123.605 48.5661L123.989 49.5178L122.909 52.1174H125.267ZM131.081 56.3789C130.778 56.3789 130.517 56.27 130.3 56.0522C130.091 55.8344 129.987 55.5739 129.987 55.2709V47.8132C129.987 47.3018 130.157 46.923 130.498 46.6768C130.839 46.4306 131.365 46.3074 132.075 46.3074V54.5749H135.74C136.214 54.5749 136.573 54.7311 136.82 55.0436C137.075 55.3467 137.203 55.7918 137.203 56.3789H131.081ZM138.48 47.387C138.48 47.1219 138.58 46.8993 138.778 46.7194C138.987 46.53 139.238 46.4353 139.531 46.4353H145.881C145.881 47.0603 145.777 47.5149 145.569 47.799C145.36 48.0831 145.024 48.2251 144.56 48.2251H140.568V50.4696H144.29C144.29 51.0946 144.186 51.5492 143.978 51.8333C143.769 52.1174 143.433 52.2594 142.969 52.2594H140.568V54.5891H144.858C145.313 54.5891 145.644 54.7311 145.853 55.0152C146.061 55.2993 146.165 55.7539 146.165 56.3789H139.531C139.238 56.3789 138.987 56.2889 138.778 56.109C138.58 55.9291 138.48 55.7018 138.48 55.4272V47.387Z" fill="white"/>
</svg>
